<svg id="Group_33" data-name="Group 33" xmlns="http://www.w3.org/2000/svg" xmlns:xlink="http://www.w3.org/1999/xlink" width="692.967" height="819.428" viewBox="0 0 692.967 819.428">
  <defs>
    <linearGradient id="linear-gradient" x1="0.5" x2="0.5" y2="1" gradientUnits="objectBoundingBox">
      <stop offset="0" stop-color="#fbe34d"/>
      <stop offset="1" stop-color="#f90"/>
    </linearGradient>
    <clipPath id="clip-path">
      <path id="Path_83" data-name="Path 83" d="M719.149,266.014c51.756,68.407,87.105,105.325,80.268,200.089-6.563,91.109,64.614,127.8,48.313,244.666s-127.435,160.78-237.8,160.35c-111.1-.436-154.21-7.852-198.395-105.991-48.494-107.709-89.459-95.387-142.678-130.406-65.443-43.058-86.968-172.623-51.638-284.049S573.974,74.158,719.149,266.014Z" transform="translate(-200.339 -177.931)" fill="none"/>
    </clipPath>
    <linearGradient id="linear-gradient-2" x1="0.251" y1="0.815" x2="0.888" y2="0.139" gradientUnits="objectBoundingBox">
      <stop offset="0" stop-color="#5b9af1"/>
      <stop offset="1" stop-color="#70b9f9" stop-opacity="0"/>
    </linearGradient>
    <linearGradient id="linear-gradient-3" x1="1" y1="0.5" x2="0" y2="0.5" xlink:href="#linear-gradient-2"/>
    <linearGradient id="linear-gradient-4" x1="1" y1="0.5" x2="0" y2="0.5" gradientUnits="objectBoundingBox">
      <stop offset="0" stop-color="#192765"/>
      <stop offset="1" stop-color="#193d7c" stop-opacity="0"/>
    </linearGradient>
    <linearGradient id="linear-gradient-5" x1="1.035" y1="0.899" x2="0.513" y2="0.535" gradientUnits="objectBoundingBox">
      <stop offset="0" stop-color="#2284c6"/>
      <stop offset="1" stop-color="#2284c6" stop-opacity="0"/>
    </linearGradient>
    <linearGradient id="linear-gradient-6" x1="0.379" y1="0.719" x2="0.713" y2="0.208" xlink:href="#linear-gradient-2"/>
  </defs>
  <path id="Path_65" data-name="Path 65" d="M719.149,266.014c51.756,68.407,87.105,105.325,80.268,200.089-6.563,91.109,64.614,127.8,48.313,244.666s-127.435,160.78-237.8,160.35c-111.1-.436-154.21-7.852-198.395-105.991-48.494-107.709-89.459-95.387-142.678-130.406-65.443-43.058-86.968-172.623-51.638-284.049S573.974,74.158,719.149,266.014Z" transform="translate(-189.133 -83.727)" fill="#edf6ff"/>
  <rect id="Rectangle_14" data-name="Rectangle 14" width="399.329" height="248.244" rx="0.73" transform="matrix(-0.991, -0.131, 0.131, -0.991, 660.352, 505.94)" fill="#c0e0fc" opacity="0.5"/>
  <path id="Rectangle_15" data-name="Rectangle 15" d="M.414,0H225.831a.413.413,0,0,1,.413.413V140.232a.413.413,0,0,1-.413.413H.414A.414.414,0,0,1,0,140.232V.414A.414.414,0,0,1,.414,0Z" transform="translate(654.274 356.976) rotate(-172.45)" fill="#76f4bd" opacity="0.5"/>
  <rect id="Rectangle_16" data-name="Rectangle 16" width="226.244" height="140.646" transform="translate(469.347 510.024) rotate(-172.45)" opacity="0.54" fill="url(#linear-gradient)"/>
  <rect id="Rectangle_17" data-name="Rectangle 17" width="44.236" height="102.116" rx="0.3" transform="translate(415.25 341.504) rotate(-172.443)" fill="#fff" opacity="0.5"/>
  <path id="Rectangle_18" data-name="Rectangle 18" d="M.3,0H144.957a.3.3,0,0,1,.3.3V101.816a.3.3,0,0,1-.3.3H.3a.3.3,0,0,1-.3-.3V.3A.3.3,0,0,1,.3,0Z" transform="translate(638.399 480.727) rotate(-172.508)" fill="#fff" opacity="0.5"/>
  <rect id="Rectangle_19" data-name="Rectangle 19" width="44.236" height="102.116" rx="0.3" transform="matrix(-0.991, -0.131, 0.131, -0.991, 359.539, 334.239)" fill="#fff" opacity="0.5"/>
  <g id="Group_31" data-name="Group 31" transform="translate(11.206 94.204)">
    <g id="Group_30" data-name="Group 30" clip-path="url(#clip-path)">
      <g id="Group_29" data-name="Group 29" transform="translate(86.444 164.271)">
        <path id="Path_66" data-name="Path 66" d="M281.223,222.255s-4.72-2.578-14.359.766c-9.134,3.169,11.557,19.62,11.557,19.62l7.821-16.283Z" transform="translate(-122.595 -115.49)" fill="#a9d5ed"/>
        <path id="Path_67" data-name="Path 67" d="M411.98,220.36a16.068,16.068,0,0,1,10.89,15.156c.423,12.173-4.272,23.487-8.543,31.389s-7.254,14.726-7.042,20.062,3.736,5.019,5.816.7,3.045-15.374,7.846-20.336,9.29-5.922,12.97-4c0,0,1.445,1.121,1.283,4.166s-1.6,7.846-3.842,16.495-3.2,21.451-7.69,28.338-16.812,14.732-21.93,20.336-17.3,13.661-39.073,43.55S323.81,433,299.047,454.776s-56.794,14.514-56.794,14.514l22.2-80.268s51.376-20.523,68.388-34.284c15.741-12.727,40.492-36.6,41.775-46.843s-6.4-32.883.853-47.4S399.813,220.36,411.98,220.36Z" transform="translate(-132.816 -120.438)" fill="#70b9f9"/>
        <path id="Path_68" data-name="Path 68" d="M411.98,220.36a16.068,16.068,0,0,1,10.89,15.156c.423,12.173-4.272,23.487-8.543,31.389s-7.254,14.726-7.042,20.062,3.736,5.019,5.816.7,3.045-15.374,7.846-20.336,9.29-5.922,12.97-4c0,0,1.445,1.121,1.283,4.166s-1.6,7.846-3.842,16.495-3.2,21.451-7.69,28.338-16.812,14.732-21.93,20.336-17.3,13.661-39.073,43.55S323.81,433,299.047,454.776s-56.794,14.514-56.794,14.514l22.2-80.268s51.376-20.523,68.388-34.284c15.741-12.727,40.492-36.6,41.775-46.843s-6.4-32.883.853-47.4S399.813,220.36,411.98,220.36Z" transform="translate(-132.816 -120.438)" fill="url(#linear-gradient-2)"/>
        <path id="Path_69" data-name="Path 69" d="M278.448,235.975c11.532-16.656,49.957-28.182,78.78-16.015,0,0,30.741,19.857,42.273,48.039s28.182,70.449,13.449,94.148c-4.29,6.9-12.347,13.518-22.771,18.12h.006l-.187.075c-.286.125-.567.249-.847.367-3.686,1.619-16.252,7.727-16.98,16.071-.853,9.776,2.989,20.019,2.989,20.019s-24.776,10.548-48.687,7.13c0,0-1.706-25.249-17.08-42.939-3.867-4.452-.66-6.706,6.3-7.59a112.779,112.779,0,0,1-24.44-20.859C243.224,298.74,266.922,252.625,278.448,235.975Z" transform="translate(-241.415 -148.979)" fill="#70b9f9"/>
        <path id="Path_70" data-name="Path 70" d="M278.448,235.975c11.532-16.656,49.957-28.182,78.78-16.015,0,0,30.741,19.857,42.273,48.039s28.182,70.449,13.449,94.148c-4.29,6.9-12.347,13.518-22.771,18.12h.006l-.187.075c-.286.125-.567.249-.847.367-3.686,1.619-16.252,7.727-16.98,16.071-.853,9.776,2.989,20.019,2.989,20.019s-24.776,10.548-48.687,7.13c0,0-1.706-25.249-17.08-42.939-3.867-4.452-.66-6.706,6.3-7.59a112.779,112.779,0,0,1-24.44-20.859C243.224,298.74,266.922,252.625,278.448,235.975Z" transform="translate(-241.415 -148.979)" fill="url(#linear-gradient-3)"/>
        <path id="Path_71" data-name="Path 71" d="M405.1,218.294s44.832,51.937,3.2,99.272c-15.7,17.852-28.823,19.278-29.465,29.465s12.491,24.975-2.559,36.507c-6.613,5.062,18.331,53.444,13.008,58.1S375,452.7,350.664,452.069s-61.233-36.227-75.58-66.613c-10.891-23.058-16.65-59.565,1.924-85.181s16.009-16.656,21.775-36.507,32.024-7.049,40.99-20.5S376.922,180.5,405.1,218.294Z" transform="translate(-264.951 -204.313)" fill="#193d7c"/>
        <path id="Path_72" data-name="Path 72" d="M405.1,218.294s44.832,51.937,3.2,99.272c-15.7,17.852-28.823,19.278-29.465,29.465s12.491,24.975-2.559,36.507c-6.613,5.062,18.331,53.444,13.008,58.1S375,452.7,350.664,452.069s-61.233-36.227-75.58-66.613c-10.891-23.058-16.65-59.565,1.924-85.181s16.009-16.656,21.775-36.507,32.024-7.049,40.99-20.5S376.922,180.5,405.1,218.294Z" transform="translate(-264.951 -204.313)" fill="url(#linear-gradient-4)"/>
        <path id="Path_73" data-name="Path 73" d="M263.442,276.878c3.145,11.115,7.553,22.6,18.132,22.9,4.894.118,11.239-2.659,16.918-6.47,6.65-4.408,12.391-10.149,13.6-14.079,4.172-13.78-5.5-42.721-17.765-54.085a20.212,20.212,0,0,0-5.2-3.686s6.463,4.894-18.132,23.929C260.547,253.428,259.881,264.244,263.442,276.878Z" transform="translate(-130.487 -114.688)" fill="#fff"/>
        <path id="Path_74" data-name="Path 74" d="M265.785,276.878c3.145,11.115,7.553,22.6,18.132,22.9,4.894.118,11.239-2.659,16.918-6.47-2.951,1.395-8.176,4.471-12.69-3.506-2.864-5.056-11.906-29.427-8.643-37.765,3.263-8.282,13.113-16.862,16.376-22.18a5.879,5.879,0,0,0,.791-4.714,20.212,20.212,0,0,0-5.2-3.686s6.463,4.894-18.132,23.929C262.889,253.428,262.223,264.244,265.785,276.878Z" transform="translate(-132.83 -114.688)" fill="#d6edfc"/>
        <path id="Path_75" data-name="Path 75" d="M398.115,250.334s-60.978,49.639-115.9,44.994c-6.438-.542-14.732-14.813-15.293-20.187,0,0,82.809-1.152,122.728-46.906Z" transform="translate(-249.344 -79.278)" fill="#d6edfc"/>
        <path id="Path_76" data-name="Path 76" d="M288.554,258.21s-27.54,9.633-36.638,56.707c-8.966,46.383,17.422,83.263,36.638,122.971s24.34,74.3,24.34,74.3H483.263s25.4-220.114-78.78-262.063C404.483,250.122,330.827,238.011,288.554,258.21Z" transform="translate(-232.536 16.296)" fill="#0053fc"/>
        <path id="Path_77" data-name="Path 77" d="M288.554,258.21s-27.54,9.633-36.638,56.707c-8.966,46.383,17.422,83.263,36.638,122.971s24.34,74.3,24.34,74.3H483.263s25.4-220.114-78.78-262.063C404.483,250.122,330.827,238.011,288.554,258.21Z" transform="translate(-232.536 16.296)" fill="url(#linear-gradient-5)"/>
        <path id="Path_78" data-name="Path 78" d="M341.248,265.671s96.072,53.375,107.6,70.878,9.819,26.906,0,35.013-86.252,16.227-166.1-20.492-48.68-87.105-30.741-94.789S308.614,246.9,341.248,265.671Z" transform="translate(-82.626 38.854)" fill="#70b9f9"/>
        <path id="Path_79" data-name="Path 79" d="M341.248,265.671s96.072,53.375,107.6,70.878,9.819,26.906,0,35.013-86.252,16.227-166.1-20.492-48.68-87.105-30.741-94.789S308.614,246.9,341.248,265.671Z" transform="translate(-82.626 38.854)" fill="url(#linear-gradient-6)"/>
        <path id="Path_80" data-name="Path 80" d="M251.758,461.136S301.1,418.01,319.9,353.962s35.013-107.6,35.013-107.6l-27.759-13.238s-5.118,25.623-16.221,40.137-50.5,60.629-66.669,85.4-17.31,46.756-29.334,43.873" transform="translate(117.637 -53.709)" fill="#70b9f9"/>
        <path id="Path_81" data-name="Path 81" d="M397.514,280.512s-18.356,79.422-47.391,107.6c0,0-95.219-29.888-101.626-74.72s8.331-60.773,37.9-65.829S397.514,280.512,397.514,280.512Z" transform="translate(-124.801 19.318)" fill="#0053fc"/>
        <path id="Path_82" data-name="Path 82" d="M214.219,328.708s2.64-11.245,0-22.348-3.985-30.741,1.171-36.719c3.219-3.73,8.282-5.816,11.638-6.856a7.391,7.391,0,0,0,4.776-4.633c2.123-6.04,6.058-17.883,6.675-24.377.853-8.966.536-12.6,1.389-15.586s8.095-3.748,9.178,12.914c.915,13.954.1,17.086-.069,18.842-.623,6.613,1.638,8.91,5.99,13.923,4.321,4.975,8.742,12.123,8.064,20.075-1.283,15.056-5.442,19.539-10.249,29.147s-8.649,20.156-8.649,20.156l-16.65,7.385Z" transform="translate(228.414 -140.591)" fill="#70b9f9"/>
      </g>
    </g>
  </g>
  <path id="Path_84" data-name="Path 84" d="M298.816,257.035s94.957,29.577,98.849,84.839-28.8,57.6-49.421,45.922-12.846-59.932-45.536-83.282S265.914,243.461,298.816,257.035Z" transform="translate(-208.529 314.72)" fill="#edf6ff"/>
  <path id="Path_85" data-name="Path 85" d="M371.632,310.363S325.5,258.868,255.4,240.12c-32.8-8.767-55.6-39.82-31.134-67.784,21.793-24.907,111.041,1.04,155.667,53.967C418.9,272.517,418.332,334.23,371.632,310.363Z" transform="translate(168.017 -162.802)" fill="#edf6ff"/>
  <g id="Group_32" data-name="Group 32" transform="translate(0 136.197)">
    <ellipse id="Ellipse_5" data-name="Ellipse 5" cx="19.09" cy="19.09" rx="19.09" ry="19.09" transform="translate(84.689 110.048)" fill="#fbe54f" opacity="0.5"/>
    <ellipse id="Ellipse_6" data-name="Ellipse 6" cx="11.039" cy="11.039" rx="11.039" ry="11.039" transform="translate(361.693)" fill="#76f4bd" opacity="0.5"/>
    <ellipse id="Ellipse_7" data-name="Ellipse 7" cx="11.206" cy="11.206" rx="11.206" ry="11.206" transform="translate(0 421.479)" fill="#fbe54f" opacity="0.5"/>
    <path id="Path_86" data-name="Path 86" d="M210.765,292.423a27.712,27.712,0,1,0,27.709-27.709A27.711,27.711,0,0,0,210.765,292.423Z" transform="translate(329.924 233.664)" fill="#fbe54f" opacity="0.5"/>
    <path id="Path_87" data-name="Path 87" d="M233.15,319.762A37.357,37.357,0,1,0,270.5,282.4,37.355,37.355,0,0,0,233.15,319.762Z" transform="translate(148.864 326.114)" fill="#76d6b0" opacity="0.3"/>
  </g>
</svg>
