<svg id="Group_28" data-name="Group 28" xmlns="http://www.w3.org/2000/svg" xmlns:xlink="http://www.w3.org/1999/xlink" width="741.686" height="741.861" viewBox="0 0 741.686 741.861">
  <defs>
    <clipPath id="clip-path">
      <path id="Path_42" data-name="Path 42" d="M603.348,50.052S505.521,62.716,453.6,173.461,317.58,311.108,326.159,400.5s55.9,94.064,116.626,133.616-6.128,114.71,89.128,161.186c59.6,29.071,138.7-62.3,221.619-37.7,47.641,14.13,178.926,17.405,210.462-63.285S902.852,418.7,916.58,355.408,1000.491-17.258,603.348,50.052Z" transform="translate(-325.55 -40.529)" fill="none"/>
    </clipPath>
    <linearGradient id="linear-gradient" x1="0.344" y1="0.5" x2="0.761" y2="0.5" gradientUnits="objectBoundingBox">
      <stop offset="0" stop-color="#5b9af1"/>
      <stop offset="1" stop-color="#70b9f9" stop-opacity="0"/>
    </linearGradient>
    <linearGradient id="linear-gradient-2" x1="0.708" y1="0.985" x2="0.31" y2="0.356" xlink:href="#linear-gradient"/>
    <linearGradient id="linear-gradient-3" x1="0.339" y1="1.141" x2="0.464" y2="0.427" gradientUnits="objectBoundingBox">
      <stop offset="0" stop-color="#2284c6"/>
      <stop offset="1" stop-color="#2284c6" stop-opacity="0"/>
    </linearGradient>
    <linearGradient id="linear-gradient-4" x1="0.843" y1="0.955" x2="0.363" y2="0.481" xlink:href="#linear-gradient-3"/>
    <linearGradient id="linear-gradient-5" x1="1.027" y1="0.5" x2="0.463" y2="0.5" xlink:href="#linear-gradient"/>
    <linearGradient id="linear-gradient-6" x1="0" y1="0.5" x2="1" y2="0.5" xlink:href="#linear-gradient"/>
    <linearGradient id="linear-gradient-7" y1="0.5" x2="1" y2="0.5" gradientUnits="objectBoundingBox">
      <stop offset="0" stop-color="#192765"/>
      <stop offset="1" stop-color="#193d7c" stop-opacity="0"/>
    </linearGradient>
    <radialGradient id="radial-gradient" cx="64.514" cy="56.613" r="53.05" gradientTransform="matrix(0.465, 0.885, -0.885, 0.465, 84.597, -26.836)" gradientUnits="userSpaceOnUse">
      <stop offset="0.005" stop-color="#fbe54f"/>
      <stop offset="0.327" stop-color="#fae04b"/>
      <stop offset="0.687" stop-color="#f8d242"/>
      <stop offset="1" stop-color="#f6c136"/>
    </radialGradient>
    <linearGradient id="linear-gradient-8" y1="0.5" x2="1" y2="0.5" gradientUnits="objectBoundingBox">
      <stop offset="0" stop-color="#fb904f"/>
      <stop offset="1" stop-color="#fbd74f" stop-opacity="0"/>
    </linearGradient>
    <radialGradient id="radial-gradient-2" cx="15.543" cy="1435.553" r="30.778" gradientTransform="matrix(0.929, 0.37, -0.37, 0.929, 490.554, 236.533)" gradientUnits="userSpaceOnUse">
      <stop offset="0.005" stop-color="#76e5b0"/>
      <stop offset="0.268" stop-color="#71e2ae"/>
      <stop offset="0.563" stop-color="#63dbaa"/>
      <stop offset="0.872" stop-color="#4dcfa2"/>
      <stop offset="1" stop-color="#42ca9f"/>
    </radialGradient>
    <linearGradient id="linear-gradient-9" y1="0.5" x2="1" y2="0.5" gradientUnits="objectBoundingBox">
      <stop offset="0.005" stop-color="#76e5b0"/>
      <stop offset="0.26" stop-color="#71e0ae"/>
      <stop offset="0.546" stop-color="#64d2aa"/>
      <stop offset="0.846" stop-color="#4fbca3"/>
      <stop offset="1" stop-color="#42ae9f"/>
    </linearGradient>
    <radialGradient id="radial-gradient-3" cx="450.838" cy="105.849" r="38.886" gradientUnits="userSpaceOnUse">
      <stop offset="0" stop-color="#70b9f9" stop-opacity="0"/>
      <stop offset="1" stop-color="#5894f5"/>
    </radialGradient>
  </defs>
  <g id="Group_17" data-name="Group 17" transform="translate(0 0)">
    <path id="Path_21" data-name="Path 21" d="M963.456,638.453c-31.509,80.657-162.78,77.409-210.462,63.278-82.88-24.577-159.84,61.832-221.6,37.683C433.213,701.022,503,617.827,442.274,578.229,381.54,538.7,326.88,534.451,325.648,444.606c-.623-45.05,48-94.794,90.588-153.3A236.989,236.989,0,0,0,453.1,217.6c.951-3.315,1.969-6.563,3.054-9.8C491.8,100.328,607.13,28.524,720.22,32.978c236.171,9.3,304.773,222.811,249.86,332.626-19.321,38.627,4.962,113.5,5.98,180.286C976.7,579.247,973.964,611.525,963.456,638.453Z" transform="translate(-325.026 -32.782)" fill="#edf6ff"/>
    <g id="Group_7" data-name="Group 7" transform="translate(0 51.882)">
      <g id="Group_6" data-name="Group 6" clip-path="url(#clip-path)">
        <g id="Group_5" data-name="Group 5" transform="translate(107.319 16.006)">
          <path id="Path_22" data-name="Path 22" d="M385.916,51.549s-32.888,28.582-7.266,83.885c13.052,28.174,28.16-44.407,28.16-44.407l12.021-40.945Z" transform="translate(-186.011 -2.113)" fill="#193d7c"/>
          <path id="Path_23" data-name="Path 23" d="M405.176,103a444.846,444.846,0,0,1,5.05,45.2,18.142,18.142,0,0,1-13.441,18.483c-5.846,1.56-13.454,3.7-22.307,6.469,0,0,18.3,31.127,61.39,31.134,41.876.007,57-28.5,57-28.5s-5.86-2.538-14.318-5.532a23.3,23.3,0,0,1-15.631-20.74c-.743-14.733-.556-37.784,4.936-61.819C477.087,47.307,405.176,103,405.176,103Z" transform="translate(-154.134 128.471)" fill="#70b9f9"/>
          <path id="Path_24" data-name="Path 24" d="M405.176,103a444.846,444.846,0,0,1,5.05,45.2,18.142,18.142,0,0,1-13.441,18.483c-5.846,1.56-13.454,3.7-22.307,6.469,0,0,18.3,31.127,61.39,31.134,41.876.007,57-28.5,57-28.5s-5.86-2.538-14.318-5.532a23.3,23.3,0,0,1-15.631-20.74c-.743-14.733-.556-37.784,4.936-61.819C477.087,47.307,405.176,103,405.176,103Z" transform="translate(-154.134 128.471)" fill="url(#linear-gradient)"/>
          <path id="Path_25" data-name="Path 25" d="M342.264,196.992s6.8,19.407,45.606,17.1,96.461-36.4,96.461-36.4L443.882,96.144l-93.722,83.2Z" transform="translate(-337.653 260.295)" fill="#70b9f9"/>
          <path id="Path_26" data-name="Path 26" d="M342.264,196.992s6.8,19.407,45.606,17.1,96.461-36.4,96.461-36.4L443.882,96.144l-93.722,83.2Z" transform="translate(-337.653 260.295)" fill="url(#linear-gradient-2)"/>
          <path id="Path_27" data-name="Path 27" d="M502.258,86.453s-85.726,20.827-148.208,72.46c0,0,5.264,51.512,44.722,93.287,0,0,41.875-20.057,60.955-35.513S502.258,86.453,502.258,86.453Z" transform="translate(-270.51 205.087)" fill="#0053fc"/>
          <path id="Path_28" data-name="Path 28" d="M502.258,86.453s-85.726,20.827-148.208,72.46c0,0,5.264,51.512,44.722,93.287,0,0,41.875-20.057,60.955-35.513S502.258,86.453,502.258,86.453Z" transform="translate(-270.51 205.087)" fill="url(#linear-gradient-3)"/>
          <path id="Path_29" data-name="Path 29" d="M429.873,86.453s33.324,50.427,99.535,3.074c0,0,79.806,29.379,92.959,108.3s-11.84,233.057-11.84,233.057H375.609s-9.449-67.839-6.71-149.306C371.182,213.506,344.8,138.635,429.873,86.453Z" transform="translate(-198.125 205.087)" fill="#0053fc"/>
          <path id="Path_30" data-name="Path 30" d="M429.873,86.453s33.324,50.427,99.535,3.074c0,0,79.806,29.379,92.959,108.3s-11.84,233.057-11.84,233.057H375.609s-9.449-67.839-6.71-149.306C371.182,213.506,344.8,138.635,429.873,86.453Z" transform="translate(-198.125 205.087)" fill="url(#linear-gradient-4)"/>
          <path id="Path_31" data-name="Path 31" d="M399.267,112.5s5.264,91.318,1.755,123.329-9.65,46.7-9.65,46.7h48.184s44.119-74.764,44.012-165.968" transform="translate(-57.898 353.45)" fill="#70b9f9"/>
          <path id="Path_32" data-name="Path 32" d="M399.267,112.5s5.264,91.318,1.755,123.329-9.65,46.7-9.65,46.7h48.184s44.119-74.764,44.012-165.968" transform="translate(-57.898 353.45)" fill="url(#linear-gradient-5)"/>
          <path id="Path_33" data-name="Path 33" d="M435.914,93.373s21.926-4.6,42.967,29.6,24.665,111.154,24.665,111.154-46.7,20.827-104.906,10.963c0,0-13.481-67.2-6.576-106.989S435.914,93.373,435.914,93.373Z" transform="translate(-65.166 243.331)" fill="#0053fc"/>
          <path id="Path_34" data-name="Path 34" d="M396.761,350.787s46.825-52.939,49.269-97.734S453,166.323,468.451,150.846s41.105-19.14,50.876-33.391,7.333-57.827-15.878-53.347-41.534,41.741-57.01,63.834-54.974,60.365-85.921,136.107-14.659,117.275-14.659,117.275S376.8,369.927,396.761,350.787Z" transform="translate(-341.576 75.962)" fill="#70b9f9"/>
          <path id="Path_35" data-name="Path 35" d="M368.274,179.706s-5.739,51.532,17.338,69.379,86.717,17.867,128.821-15.932,40.108-93.528,39.123-105.08c-1.648-19.414-27.109-66.486-75.688-72.534-37.81-4.715-91.626-26.982-103.051,71.683C367.785,187.956,368.274,179.706,368.274,179.706Z" transform="translate(-193.087 -2.146)" fill="#70b9f9"/>
          <path id="Path_36" data-name="Path 36" d="M368.274,179.706s-5.739,51.532,17.338,69.379,86.717,17.867,128.821-15.932,40.108-93.528,39.123-105.08c-1.648-19.414-27.109-66.486-75.688-72.534-37.81-4.715-91.626-26.982-103.051,71.683C367.785,187.956,368.274,179.706,368.274,179.706Z" transform="translate(-193.087 -2.146)" fill="url(#linear-gradient-6)"/>
          <path id="Path_37" data-name="Path 37" d="M374.527,64.388c-10.152,17.09-14.72,61.745,36.639,70.558s78.105.67,87.347,16.166c7.534,12.65-6.784,21.149-2.438,49.054,1.587,10.152,25.274,2.257,26.975,17.07s-28.361,57.405-21.517,64.089S542.5,244.192,551.5,220.546s19.581-80.181-.067-113.224c-14.867-24.993-34.951-34.743-53.669-37.556s-13.6-22.957-33.27-26.566-17.124,29.084-34.583,20.445S385.946,45.169,374.527,64.388Z" transform="translate(-190.595 -42.919)" fill="#193d7c"/>
          <path id="Path_38" data-name="Path 38" d="M374.527,64.388c-10.152,17.09-14.72,61.745,36.639,70.558s78.105.67,87.347,16.166c7.534,12.65-6.784,21.149-2.438,49.054,1.587,10.152,25.274,2.257,26.975,17.07s-28.361,57.405-21.517,64.089S542.5,244.192,551.5,220.546s19.581-80.181-.067-113.224c-14.867-24.993-34.951-34.743-53.669-37.556s-13.6-22.957-33.27-26.566-17.124,29.084-34.583,20.445S385.946,45.169,374.527,64.388Z" transform="translate(-190.595 -42.919)" fill="url(#linear-gradient-7)"/>
          <path id="Path_39" data-name="Path 39" d="M507.193,104.443c0,.06-2.5,8.056-2.565,8.163-6.831,21.383-26.821,22.856-40.241,18.724h-.06c-3.415-1.118-6.77-2.123-10.072-3.081-1.179-.335-2.35-.67-3.529-.951a.166.166,0,0,0-.107-.054c-9.356-2.632-18.309-4.648-27.156-6.6a8.687,8.687,0,0,1-3.817-1.929c-2.967-2.578-7.3-5.739-10.842-5.907a5.11,5.11,0,0,0-3.382.763c-1.929,1.359-5.083,2.625-7.413,2.277-5.7-.864-10.742-1.46-14.947-1.848a13.177,13.177,0,0,1-9.128-4.808c-4.956-6.188-7.668-14.746-7.668-14.746l32.969-9.965,82-23.841a106.5,106.5,0,0,1,17.184,11.974.059.059,0,0,1,.06.06c.054.054.168.107.221.221C500.43,74.689,512.176,86.871,507.193,104.443Z" transform="translate(-200.922 58.028)" fill="#d6edfc"/>
          <path id="Path_40" data-name="Path 40" d="M387.231,57.75c16.2,1.092,51.974,3.9,85.74,14.579a31.426,31.426,0,0,1,20.78,38.808l-.214.723a31.376,31.376,0,0,1-37.83,21.671c-22.984-5.826-55.122-12.684-79.237-15.45-16.166-1.855-9.014-29.031-7.768-34.154C369.846,79.193,375.927,56.993,387.231,57.75Z" transform="translate(-202.126 41.463)" fill="#fff"/>
          <path id="Path_41" data-name="Path 41" d="M396.582,64.961s47.025,22.468,56.89,42.753a53.923,53.923,0,0,1-11.88,17.2S420.7,112.971,384.742,99.383Z" transform="translate(-95.662 82.65)" fill="#d6edfc"/>
        </g>
      </g>
    </g>
    <g id="Group_10" data-name="Group 10" transform="translate(4.775 192.113)">
      <ellipse id="Ellipse_1" data-name="Ellipse 1" cx="53.051" cy="53.051" rx="53.051" ry="53.051" transform="translate(22.118 101.309) rotate(-72.715)" fill="url(#radial-gradient)"/>
      <g id="Group_8" data-name="Group 8" transform="translate(0 39.19)">
        <path id="Path_43" data-name="Path 43" d="M503.166,78.232c-1.205-6.75-11.137-10.313-30.363-10.822-3.884-.134-8.023-.134-12.416.121a38.553,38.553,0,0,1,3.181,6.241c1.467-.06,2.933-.06,4.333-.06h4.708c9.55.254,15.6,1.333,19.227,2.545,3.69,1.145,4.969,2.418,5.1,3.121.255,1.4-2.993,6.616-20.693,14-2.672,1.085-5.471,2.163-8.465,3.181-14.07,5.1-31.576,9.617-50.166,13.052-20.687,3.817-38.072,5.478-51.566,5.732-21.068.382-32.781-2.551-33.357-5.672s9.3-9.992,29.091-17.124a43.625,43.625,0,0,1,.763-7.065c-20.754,7-37.878,15.918-36.156,25.4,1.527,8.21,16.233,10.949,34.442,10.949,2.732,0,5.471-.06,8.338-.188a378.513,378.513,0,0,0,49.59-5.793,350.409,350.409,0,0,0,48.318-12.228c4.139-1.46,8.023-2.927,11.586-4.386,16.555-6.878,24.638-13.246,24.638-19.608A9.781,9.781,0,0,0,503.166,78.232Z" transform="translate(-326.263 -67.321)" fill="#f4b442"/>
      </g>
      <g id="Group_9" data-name="Group 9" transform="translate(0 39.19)">
        <path id="Path_44" data-name="Path 44" d="M503.166,78.232c-1.205-6.75-11.137-10.313-30.363-10.822-3.884-.134-8.023-.134-12.416.121a38.553,38.553,0,0,1,3.181,6.241c1.467-.06,2.933-.06,4.333-.06h4.708c9.55.254,15.6,1.333,19.227,2.545,3.69,1.145,4.969,2.418,5.1,3.121.255,1.4-2.993,6.616-20.693,14-2.672,1.085-5.471,2.163-8.465,3.181-14.07,5.1-31.576,9.617-50.166,13.052-20.687,3.817-38.072,5.478-51.566,5.732-21.068.382-32.781-2.551-33.357-5.672s9.3-9.992,29.091-17.124a43.625,43.625,0,0,1,.763-7.065c-20.754,7-37.878,15.918-36.156,25.4,1.527,8.21,16.233,10.949,34.442,10.949,2.732,0,5.471-.06,8.338-.188a378.513,378.513,0,0,0,49.59-5.793,350.409,350.409,0,0,0,48.318-12.228c4.139-1.46,8.023-2.927,11.586-4.386,16.555-6.878,24.638-13.246,24.638-19.608A9.781,9.781,0,0,0,503.166,78.232Z" transform="translate(-326.263 -67.321)" fill="url(#linear-gradient-8)"/>
      </g>
    </g>
    <g id="Group_12" data-name="Group 12" transform="translate(395.194 28.873)">
      <path id="Path_45" data-name="Path 45" d="M446.622,79.276a30.776,30.776,0,1,1-17.191-39.987A30.781,30.781,0,0,1,446.622,79.276Z" transform="translate(-369.266 -37.093)" fill="url(#radial-gradient-2)"/>
      <g id="Group_11" data-name="Group 11" transform="translate(0 7.772)">
        <path id="Path_46" data-name="Path 46" d="M481.76,80.56c1.493-3.683-2.277-8.505-11.565-14.693-1.868-1.266-3.9-2.545-6.134-3.777a22.062,22.062,0,0,1-.362,4.045c.737.422,1.453.877,2.143,1.313l2.317,1.453a40.472,40.472,0,0,1,8.652,7.192c1.46,1.7,1.687,2.719,1.534,3.1-.308.77-3.516,2.331-14.485.489-1.647-.295-3.355-.629-5.143-1.058a188.49,188.49,0,0,1-28.662-9.094,187.164,187.164,0,0,1-27.1-13.119c-10.46-6.322-15.309-11.378-14.626-13.092s7.655-2.036,19.575.583a26,26,0,0,1,2.558-3.235c-12.349-2.973-23.513-3.891-25.6,1.3-1.788,4.507,4.587,10.394,13.528,16.019,1.346.85,2.706,1.661,4.152,2.485a219.3,219.3,0,0,0,26.145,12.483,204.032,204.032,0,0,0,27.5,8.927c2.484.563,4.842,1.045,7.045,1.426,10.253,1.734,16.186,1.112,18.155-2.016A4.954,4.954,0,0,0,481.76,80.56Z" transform="translate(-384.562 -38.254)" fill="url(#linear-gradient-9)"/>
      </g>
    </g>
    <g id="Group_16" data-name="Group 16" transform="translate(493.047 285.818)" opacity="0.31">
      <path id="Path_47" data-name="Path 47" d="M480.411,120.282a38.879,38.879,0,1,1-32.486-44.36A38.873,38.873,0,0,1,480.411,120.282Z" transform="translate(-376.795 -75.461)" fill="#92c3fe"/>
      <path id="Path_48" data-name="Path 48" d="M480.411,120.282a38.879,38.879,0,1,1-32.486-44.36A38.873,38.873,0,0,1,480.411,120.282Z" transform="translate(-376.795 -75.461)" fill="url(#radial-gradient-3)"/>
      <g id="Group_14" data-name="Group 14" transform="translate(0 19.986)">
        <g id="Group_13" data-name="Group 13">
          <path id="Path_49" data-name="Path 49" d="M529.456,107.385c.79-4.962-5.224-9.824-18.4-14.82-2.659-1.025-5.518-2.022-8.619-2.906a28.246,28.246,0,0,1,.7,5.083c1.025.308,2.043.663,3.007,1l3.261,1.138c6.549,2.478,10.474,4.688,12.691,6.4,2.277,1.681,2.853,2.873,2.772,3.389-.161,1.031-3.67,3.857-17.7,4.694-2.11.1-4.313.174-6.63.161a239.184,239.184,0,0,1-37.864-3.081,237.443,237.443,0,0,1-37.06-8.485c-14.68-4.828-22.073-9.677-21.718-11.974s8.847-4.674,24.263-4.828a32.025,32.025,0,0,1,2.237-4.708c-16.052-.161-30.056,1.868-31.154,8.847-.924,6.054,8.592,11.5,21.189,15.892,1.9.663,3.8,1.279,5.82,1.882a275.724,275.724,0,0,0,35.714,7.969,258.2,258.2,0,0,0,36.384,3.208c3.221-.02,6.261-.094,9.081-.248,13.112-.757,20.245-3.214,21.778-7.614A8.178,8.178,0,0,0,529.456,107.385Z" transform="translate(-399.174 -78.446)" fill="#92c3fe"/>
        </g>
      </g>
      <g id="Group_15" data-name="Group 15" transform="translate(0 19.986)">
        <path id="Path_50" data-name="Path 50" d="M529.456,107.385c.79-4.962-5.224-9.824-18.4-14.82-2.659-1.025-5.518-2.022-8.619-2.906a28.246,28.246,0,0,1,.7,5.083c1.025.308,2.043.663,3.007,1l3.261,1.138c6.549,2.478,10.474,4.688,12.691,6.4,2.277,1.681,2.853,2.873,2.772,3.389-.161,1.031-3.67,3.857-17.7,4.694-2.11.1-4.313.174-6.63.161a239.184,239.184,0,0,1-37.864-3.081,237.443,237.443,0,0,1-37.06-8.485c-14.68-4.828-22.073-9.677-21.718-11.974s8.847-4.674,24.263-4.828a32.025,32.025,0,0,1,2.237-4.708c-16.052-.161-30.056,1.868-31.154,8.847-.924,6.054,8.592,11.5,21.189,15.892,1.9.663,3.8,1.279,5.82,1.882a275.724,275.724,0,0,0,35.714,7.969,258.2,258.2,0,0,0,36.384,3.208c3.221-.02,6.261-.094,9.081-.248,13.112-.757,20.245-3.214,21.778-7.614A8.178,8.178,0,0,0,529.456,107.385Z" transform="translate(-399.174 -78.446)" fill="url(#linear-gradient-6)"/>
      </g>
    </g>
    <path id="Path_51" data-name="Path 51" d="M397.491,159.71c-2.632,16.481-16.977,38.929,26.526,61.276,24.477,12.583,27.317,22.414,23.868,33.29-3.4,10.728-21.216,17.64-47.213,3.315s-68.824-43.925-64.979-99.6C338.606,115.813,406.358,104.187,397.491,159.71Z" transform="translate(-269.147 476.157)" fill="#edf6ff"/>
    <path id="Path_52" data-name="Path 52" d="M442.1,85.514s15.108,45.358,6.362,71.623-29.265,54.372-23.78,69.754,89.035,17.666,82.673-77.77S433.593,44.757,442.1,85.514Z" transform="translate(233.982 136.696)" fill="#edf6ff"/>
  </g>
  <g id="Group_20" data-name="Group 20" transform="translate(4.775 192.113)">
    <ellipse id="Ellipse_2" data-name="Ellipse 2" cx="53.051" cy="53.051" rx="53.051" ry="53.051" transform="translate(22.118 101.309) rotate(-72.715)" fill="url(#radial-gradient)"/>
    <g id="Group_18" data-name="Group 18" transform="translate(0 39.19)">
      <path id="Path_53" data-name="Path 53" d="M503.166,78.232c-1.205-6.75-11.137-10.313-30.363-10.822-3.884-.134-8.023-.134-12.416.121a38.553,38.553,0,0,1,3.181,6.241c1.467-.06,2.933-.06,4.333-.06h4.708c9.55.254,15.6,1.333,19.227,2.545,3.69,1.145,4.969,2.418,5.1,3.121.255,1.4-2.993,6.616-20.693,14-2.672,1.085-5.471,2.163-8.465,3.181-14.07,5.1-31.576,9.617-50.166,13.052-20.687,3.817-38.072,5.478-51.566,5.732-21.068.382-32.781-2.551-33.357-5.672s9.3-9.992,29.091-17.124a43.625,43.625,0,0,1,.763-7.065c-20.754,7-37.878,15.918-36.156,25.4,1.527,8.21,16.233,10.949,34.442,10.949,2.732,0,5.471-.06,8.338-.188a378.513,378.513,0,0,0,49.59-5.793,350.409,350.409,0,0,0,48.318-12.228c4.139-1.46,8.023-2.927,11.586-4.386,16.555-6.878,24.638-13.246,24.638-19.608A9.781,9.781,0,0,0,503.166,78.232Z" transform="translate(-326.263 -67.321)" fill="#f4b442"/>
    </g>
    <g id="Group_19" data-name="Group 19" transform="translate(0 39.19)">
      <path id="Path_54" data-name="Path 54" d="M503.166,78.232c-1.205-6.75-11.137-10.313-30.363-10.822-3.884-.134-8.023-.134-12.416.121a38.553,38.553,0,0,1,3.181,6.241c1.467-.06,2.933-.06,4.333-.06h4.708c9.55.254,15.6,1.333,19.227,2.545,3.69,1.145,4.969,2.418,5.1,3.121.255,1.4-2.993,6.616-20.693,14-2.672,1.085-5.471,2.163-8.465,3.181-14.07,5.1-31.576,9.617-50.166,13.052-20.687,3.817-38.072,5.478-51.566,5.732-21.068.382-32.781-2.551-33.357-5.672s9.3-9.992,29.091-17.124a43.625,43.625,0,0,1,.763-7.065c-20.754,7-37.878,15.918-36.156,25.4,1.527,8.21,16.233,10.949,34.442,10.949,2.732,0,5.471-.06,8.338-.188a378.513,378.513,0,0,0,49.59-5.793,350.409,350.409,0,0,0,48.318-12.228c4.139-1.46,8.023-2.927,11.586-4.386,16.555-6.878,24.638-13.246,24.638-19.608A9.781,9.781,0,0,0,503.166,78.232Z" transform="translate(-326.263 -67.321)" fill="url(#linear-gradient-8)"/>
    </g>
  </g>
  <g id="Group_22" data-name="Group 22" transform="translate(395.194 28.873)">
    <path id="Path_55" data-name="Path 55" d="M446.622,79.276a30.776,30.776,0,1,1-17.191-39.987A30.781,30.781,0,0,1,446.622,79.276Z" transform="translate(-369.266 -37.093)" fill="url(#radial-gradient-2)"/>
    <g id="Group_21" data-name="Group 21" transform="translate(0 7.772)">
      <path id="Path_56" data-name="Path 56" d="M481.76,80.56c1.493-3.683-2.277-8.505-11.565-14.693-1.868-1.266-3.9-2.545-6.134-3.777a22.062,22.062,0,0,1-.362,4.045c.737.422,1.453.877,2.143,1.313l2.317,1.453a40.472,40.472,0,0,1,8.652,7.192c1.46,1.7,1.687,2.719,1.534,3.1-.308.77-3.516,2.331-14.485.489-1.647-.295-3.355-.629-5.143-1.058a188.49,188.49,0,0,1-28.662-9.094,187.164,187.164,0,0,1-27.1-13.119c-10.46-6.322-15.309-11.378-14.626-13.092s7.655-2.036,19.575.583a26,26,0,0,1,2.558-3.235c-12.349-2.973-23.513-3.891-25.6,1.3-1.788,4.507,4.587,10.394,13.528,16.019,1.346.85,2.706,1.661,4.152,2.485a219.3,219.3,0,0,0,26.145,12.483,204.032,204.032,0,0,0,27.5,8.927c2.484.563,4.842,1.045,7.045,1.426,10.253,1.734,16.186,1.112,18.155-2.016A4.954,4.954,0,0,0,481.76,80.56Z" transform="translate(-384.562 -38.254)" fill="url(#linear-gradient-9)"/>
    </g>
  </g>
  <g id="Group_26" data-name="Group 26" transform="translate(493.047 285.818)" opacity="0.31">
    <path id="Path_57" data-name="Path 57" d="M480.411,120.282a38.879,38.879,0,1,1-32.486-44.36A38.873,38.873,0,0,1,480.411,120.282Z" transform="translate(-376.795 -75.461)" fill="#92c3fe"/>
    <path id="Path_58" data-name="Path 58" d="M480.411,120.282a38.879,38.879,0,1,1-32.486-44.36A38.873,38.873,0,0,1,480.411,120.282Z" transform="translate(-376.795 -75.461)" fill="url(#radial-gradient-3)"/>
    <g id="Group_24" data-name="Group 24" transform="translate(0 19.986)">
      <g id="Group_23" data-name="Group 23">
        <path id="Path_59" data-name="Path 59" d="M529.456,107.385c.79-4.962-5.224-9.824-18.4-14.82-2.659-1.025-5.518-2.022-8.619-2.906a28.246,28.246,0,0,1,.7,5.083c1.025.308,2.043.663,3.007,1l3.261,1.138c6.549,2.478,10.474,4.688,12.691,6.4,2.277,1.681,2.853,2.873,2.772,3.389-.161,1.031-3.67,3.857-17.7,4.694-2.11.1-4.313.174-6.63.161a239.184,239.184,0,0,1-37.864-3.081,237.443,237.443,0,0,1-37.06-8.485c-14.68-4.828-22.073-9.677-21.718-11.974s8.847-4.674,24.263-4.828a32.025,32.025,0,0,1,2.237-4.708c-16.052-.161-30.056,1.868-31.154,8.847-.924,6.054,8.592,11.5,21.189,15.892,1.9.663,3.8,1.279,5.82,1.882a275.724,275.724,0,0,0,35.714,7.969,258.2,258.2,0,0,0,36.384,3.208c3.221-.02,6.261-.094,9.081-.248,13.112-.757,20.245-3.214,21.778-7.614A8.178,8.178,0,0,0,529.456,107.385Z" transform="translate(-399.174 -78.446)" fill="#92c3fe"/>
      </g>
    </g>
    <g id="Group_25" data-name="Group 25" transform="translate(0 19.986)">
      <path id="Path_60" data-name="Path 60" d="M529.456,107.385c.79-4.962-5.224-9.824-18.4-14.82-2.659-1.025-5.518-2.022-8.619-2.906a28.246,28.246,0,0,1,.7,5.083c1.025.308,2.043.663,3.007,1l3.261,1.138c6.549,2.478,10.474,4.688,12.691,6.4,2.277,1.681,2.853,2.873,2.772,3.389-.161,1.031-3.67,3.857-17.7,4.694-2.11.1-4.313.174-6.63.161a239.184,239.184,0,0,1-37.864-3.081,237.443,237.443,0,0,1-37.06-8.485c-14.68-4.828-22.073-9.677-21.718-11.974s8.847-4.674,24.263-4.828a32.025,32.025,0,0,1,2.237-4.708c-16.052-.161-30.056,1.868-31.154,8.847-.924,6.054,8.592,11.5,21.189,15.892,1.9.663,3.8,1.279,5.82,1.882a275.724,275.724,0,0,0,35.714,7.969,258.2,258.2,0,0,0,36.384,3.208c3.221-.02,6.261-.094,9.081-.248,13.112-.757,20.245-3.214,21.778-7.614A8.178,8.178,0,0,0,529.456,107.385Z" transform="translate(-399.174 -78.446)" fill="url(#linear-gradient-6)"/>
    </g>
  </g>
  <g id="Group_27" data-name="Group 27" transform="translate(36.497 159.389)">
    <ellipse id="Ellipse_3" data-name="Ellipse 3" cx="11.873" cy="11.873" rx="11.873" ry="11.873" transform="translate(29.806 241.078)" fill="#76f4bd" opacity="0.5"/>
    <ellipse id="Ellipse_4" data-name="Ellipse 4" cx="11.873" cy="11.873" rx="11.873" ry="11.873" transform="translate(548.753)" fill="#76f4bd" opacity="0.5"/>
    <path id="Path_61" data-name="Path 61" d="M390.609,142.507a29.8,29.8,0,1,1-29.8-29.8A29.8,29.8,0,0,1,390.609,142.507Z" transform="translate(-331 263.146)" fill="#fbe54f" opacity="0.5"/>
    <path id="Path_62" data-name="Path 62" d="M446.44,111.895a16.749,16.749,0,1,1-16.749-16.749A16.751,16.751,0,0,1,446.44,111.895Z" transform="translate(135.811 163.109)" fill="#fbe54f" opacity="0.5"/>
    <path id="Path_63" data-name="Path 63" d="M492.125,160.987a40.178,40.178,0,1,1-40.181-40.181A40.177,40.177,0,0,1,492.125,160.987Z" transform="translate(129.129 309.29)" fill="#76d6b0" opacity="0.5"/>
  </g>
</svg>
